<svg width="172" height="35" viewBox="0 0 172 35" fill="none" xmlns="http://www.w3.org/2000/svg">
<path d="M5.688 16.126C4.764 16.126 3.936 15.976 3.204 15.676C2.472 15.376 1.884 14.932 1.44 14.344C1.008 13.756 0.78 13.048 0.756 12.22H4.032C4.08 12.688 4.242 13.048 4.518 13.3C4.794 13.54 5.154 13.66 5.598 13.66C6.054 13.66 6.414 13.558 6.678 13.354C6.942 13.138 7.074 12.844 7.074 12.472C7.074 12.16 6.966 11.902 6.75 11.698C6.546 11.494 6.288 11.326 5.976 11.194C5.676 11.062 5.244 10.912 4.68 10.744C3.864 10.492 3.198 10.24 2.682 9.988C2.166 9.736 1.722 9.364 1.35 8.872C0.978 8.38 0.792 7.738 0.792 6.946C0.792 5.77 1.218 4.852 2.07 4.192C2.922 3.52 4.032 3.184 5.4 3.184C6.792 3.184 7.914 3.52 8.766 4.192C9.618 4.852 10.074 5.776 10.134 6.964H6.804C6.78 6.556 6.63 6.238 6.354 6.01C6.078 5.77 5.724 5.65 5.292 5.65C4.92 5.65 4.62 5.752 4.392 5.956C4.164 6.148 4.05 6.43 4.05 6.802C4.05 7.21 4.242 7.528 4.626 7.756C5.01 7.984 5.61 8.23 6.426 8.494C7.242 8.77 7.902 9.034 8.406 9.286C8.922 9.538 9.366 9.904 9.738 10.384C10.11 10.864 10.296 11.482 10.296 12.238C10.296 12.958 10.11 13.612 9.738 14.2C9.378 14.788 8.85 15.256 8.154 15.604C7.458 15.952 6.636 16.126 5.688 16.126ZM38.5782 3.364L35.2842 16H31.5582L29.5422 7.684L27.4542 16H23.7282L20.5242 3.364H23.8182L25.6362 12.562L27.8862 3.364H31.2702L33.4302 12.562L35.2662 3.364H38.5782ZM56.9879 13.768H52.2719L51.5159 16H48.2939L52.8659 3.364H56.4299L61.0019 16H57.7439L56.9879 13.768ZM56.1959 11.392L54.6299 6.766L53.0819 11.392H56.1959ZM81.0233 7.432C81.0233 8.164 80.8553 8.836 80.5193 9.448C80.1833 10.048 79.6673 10.534 78.9713 10.906C78.2753 11.278 77.4113 11.464 76.3793 11.464H74.4713V16H71.3933V3.364H76.3793C77.3873 3.364 78.2393 3.538 78.9353 3.886C79.6313 4.234 80.1533 4.714 80.5013 5.326C80.8493 5.938 81.0233 6.64 81.0233 7.432ZM76.1453 9.016C76.7333 9.016 77.1713 8.878 77.4593 8.602C77.7473 8.326 77.8913 7.936 77.8913 7.432C77.8913 6.928 77.7473 6.538 77.4593 6.262C77.1713 5.986 76.7333 5.848 76.1453 5.848H74.4713V9.016H76.1453ZM99.8518 3.364V5.83H94.7038V8.494H98.5558V10.888H94.7038V16H91.6258V3.364H99.8518ZM113.548 13.624H117.58V16H110.47V3.364H113.548V13.624ZM134.024 16.126C132.836 16.126 131.744 15.85 130.748 15.298C129.764 14.746 128.978 13.978 128.39 12.994C127.814 11.998 127.526 10.882 127.526 9.646C127.526 8.41 127.814 7.3 128.39 6.316C128.978 5.332 129.764 4.564 130.748 4.012C131.744 3.46 132.836 3.184 134.024 3.184C135.212 3.184 136.298 3.46 137.282 4.012C138.278 4.564 139.058 5.332 139.622 6.316C140.198 7.3 140.486 8.41 140.486 9.646C140.486 10.882 140.198 11.998 139.622 12.994C139.046 13.978 138.266 14.746 137.282 15.298C136.298 15.85 135.212 16.126 134.024 16.126ZM134.024 13.318C135.032 13.318 135.836 12.982 136.436 12.31C137.048 11.638 137.354 10.75 137.354 9.646C137.354 8.53 137.048 7.642 136.436 6.982C135.836 6.31 135.032 5.974 134.024 5.974C133.004 5.974 132.188 6.304 131.576 6.964C130.976 7.624 130.676 8.518 130.676 9.646C130.676 10.762 130.976 11.656 131.576 12.328C132.188 12.988 133.004 13.318 134.024 13.318ZM168.586 3.364L165.292 16H161.566L159.55 7.684L157.462 16H153.736L150.532 3.364H153.826L155.644 12.562L157.894 3.364H161.278L163.438 12.562L165.274 3.364H168.586Z" fill="#242424"/>
<path d="M5.04 22.44V28H4.128V25.568H1.512V28H0.6V22.44H1.512V24.824H4.128V22.44H5.04ZM10.1526 23.176V24.808H12.0726V25.552H10.1526V27.256H12.3126V28H9.24063V22.432H12.3126V23.176H10.1526ZM19.7879 26.864H17.4599L17.0599 28H16.1079L18.0999 22.432H19.1559L21.1479 28H20.1879L19.7879 26.864ZM19.5319 26.12L18.6279 23.536L17.7159 26.12H19.5319ZM25.9261 27.264H27.8061V28H25.0141V22.44H25.9261V27.264ZM35.1608 22.44V23.184H33.6808V28H32.7688V23.184H31.2808V22.44H35.1608ZM43.5244 22.44V28H42.6124V25.568H39.9964V28H39.0844V22.44H39.9964V24.824H42.6124V22.44H43.5244ZM48.637 22.44V28H47.725V22.44H48.637ZM53.7464 23.176V24.808H55.6664V25.552H53.7464V27.256H55.9064V28H52.8344V22.432H55.9064V23.176H53.7464ZM62.9177 28L61.6377 25.776H60.9417V28H60.0297V22.44H61.9497C62.3764 22.44 62.7364 22.5147 63.0297 22.664C63.3284 22.8133 63.5497 23.0133 63.6937 23.264C63.843 23.5147 63.9177 23.7947 63.9177 24.104C63.9177 24.4667 63.811 24.7973 63.5977 25.096C63.3897 25.3893 63.067 25.5893 62.6297 25.696L64.0057 28H62.9177ZM60.9417 25.048H61.9497C62.291 25.048 62.547 24.9627 62.7177 24.792C62.8937 24.6213 62.9817 24.392 62.9817 24.104C62.9817 23.816 62.8964 23.592 62.7257 23.432C62.555 23.2667 62.2964 23.184 61.9497 23.184H60.9417V25.048ZM72.8585 25.208C72.8585 24.664 72.9838 24.176 73.2345 23.744C73.4905 23.312 73.8345 22.976 74.2665 22.736C74.7038 22.4907 75.1812 22.368 75.6985 22.368C76.2905 22.368 76.8158 22.5147 77.2745 22.808C77.7385 23.096 78.0745 23.5067 78.2825 24.04H77.1865C77.0425 23.7467 76.8425 23.528 76.5865 23.384C76.3305 23.24 76.0345 23.168 75.6985 23.168C75.3305 23.168 75.0025 23.2507 74.7145 23.416C74.4265 23.5813 74.1998 23.8187 74.0345 24.128C73.8745 24.4373 73.7945 24.7973 73.7945 25.208C73.7945 25.6187 73.8745 25.9787 74.0345 26.288C74.1998 26.5973 74.4265 26.8373 74.7145 27.008C75.0025 27.1733 75.3305 27.256 75.6985 27.256C76.0345 27.256 76.3305 27.184 76.5865 27.04C76.8425 26.896 77.0425 26.6773 77.1865 26.384H78.2825C78.0745 26.9173 77.7385 27.328 77.2745 27.616C76.8158 27.904 76.2905 28.048 75.6985 28.048C75.1758 28.048 74.6985 27.928 74.2665 27.688C73.8345 27.4427 73.4905 27.104 73.2345 26.672C72.9838 26.24 72.8585 25.752 72.8585 25.208ZM86.79 22.44V28H85.878V25.568H83.262V28H82.35V22.44H83.262V24.824H85.878V22.44H86.79ZM91.9026 23.176V24.808H93.8226V25.552H91.9026V27.256H94.0626V28H90.9906V22.432H94.0626V23.176H91.9026ZM104.042 22.44V28H103.13V24.192L101.434 28H100.802L99.0979 24.192V28H98.1859V22.44H99.1699L101.122 26.8L103.066 22.44H104.042ZM109.153 22.44V28H108.241V22.44H109.153ZM115.182 28.056C114.809 28.056 114.473 27.992 114.174 27.864C113.875 27.7307 113.641 27.544 113.47 27.304C113.299 27.064 113.214 26.784 113.214 26.464H114.19C114.211 26.704 114.305 26.9013 114.47 27.056C114.641 27.2107 114.878 27.288 115.182 27.288C115.497 27.288 115.742 27.2133 115.918 27.064C116.094 26.9093 116.182 26.712 116.182 26.472C116.182 26.2853 116.126 26.1333 116.014 26.016C115.907 25.8987 115.771 25.808 115.606 25.744C115.446 25.68 115.222 25.6107 114.934 25.536C114.571 25.44 114.275 25.344 114.046 25.248C113.822 25.1467 113.63 24.992 113.47 24.784C113.31 24.576 113.23 24.2987 113.23 23.952C113.23 23.632 113.31 23.352 113.47 23.112C113.63 22.872 113.854 22.688 114.142 22.56C114.43 22.432 114.763 22.368 115.142 22.368C115.681 22.368 116.121 22.504 116.462 22.776C116.809 23.0427 117.001 23.4107 117.038 23.88H116.03C116.014 23.6773 115.918 23.504 115.742 23.36C115.566 23.216 115.334 23.144 115.046 23.144C114.785 23.144 114.571 23.2107 114.406 23.344C114.241 23.4773 114.158 23.6693 114.158 23.92C114.158 24.0907 114.209 24.232 114.31 24.344C114.417 24.4507 114.55 24.536 114.71 24.6C114.87 24.664 115.089 24.7333 115.366 24.808C115.734 24.9093 116.033 25.0107 116.262 25.112C116.497 25.2133 116.694 25.3707 116.854 25.584C117.019 25.792 117.102 26.072 117.102 26.424C117.102 26.7067 117.025 26.9733 116.87 27.224C116.721 27.4747 116.499 27.6773 116.206 27.832C115.918 27.9813 115.577 28.056 115.182 28.056ZM124.77 22.44V23.184H123.29V28H122.378V23.184H120.89V22.44H124.77ZM131.582 28L130.302 25.776H129.606V28H128.694V22.44H130.614C131.04 22.44 131.4 22.5147 131.694 22.664C131.992 22.8133 132.214 23.0133 132.358 23.264C132.507 23.5147 132.582 23.7947 132.582 24.104C132.582 24.4667 132.475 24.7973 132.262 25.096C132.054 25.3893 131.731 25.5893 131.294 25.696L132.67 28H131.582ZM129.606 25.048H130.614C130.955 25.048 131.211 24.9627 131.382 24.792C131.558 24.6213 131.646 24.392 131.646 24.104C131.646 23.816 131.56 23.592 131.39 23.432C131.219 23.2667 130.96 23.184 130.614 23.184H129.606V25.048ZM140.868 22.44L139.028 25.984V28H138.116V25.984L136.268 22.44H137.284L138.572 25.168L139.86 22.44H140.868ZM153.022 26.864H150.694L150.294 28H149.342L151.334 22.432H152.39L154.382 28H153.422L153.022 26.864ZM152.766 26.12L151.862 23.536L150.95 26.12H152.766ZM159.16 27.264H161.04V28H158.248V22.44H159.16V27.264ZM165.715 27.264H167.595V28H164.803V22.44H165.715V27.264Z" fill="#242424"/>
</svg>
